<mxfile host="app.diagrams.net" modified="2023-08-29T17:25:00.586Z" agent="Mozilla/5.0 (Windows NT 10.0; Win64; x64) AppleWebKit/537.36 (KHTML, like Gecko) Chrome/116.0.0.0 Safari/537.36" etag="lWkkTaLCQ6jvUCWVPsAj" version="21.6.9" type="gitlab">
  <diagram name="Page-1" id="VepZMtnnACP7I4Xa6vwl">
    <mxGraphModel dx="723" dy="315" grid="1" gridSize="10" guides="1" tooltips="1" connect="1" arrows="1" fold="1" page="1" pageScale="1" pageWidth="850" pageHeight="1100" math="0" shadow="0">
      <root>
        <mxCell id="0" />
        <mxCell id="1" parent="0" />
        <mxCell id="MPhp0kBqt63ndakurBv6-2" value="Class Persona" style="rounded=1;whiteSpace=wrap;html=1;" vertex="1" parent="1">
          <mxGeometry x="80" y="70" width="120" height="60" as="geometry" />
        </mxCell>
        <mxCell id="MPhp0kBqt63ndakurBv6-3" value="Objeto:&amp;nbsp;&lt;br&gt;100% de los atributos de la clase&lt;br&gt;Tiene todas las propiedades de la clase" style="rounded=1;whiteSpace=wrap;html=1;" vertex="1" parent="1">
          <mxGeometry x="340" y="70" width="190" height="60" as="geometry" />
        </mxCell>
        <mxCell id="MPhp0kBqt63ndakurBv6-4" value="" style="shape=flexArrow;endArrow=classic;html=1;rounded=0;exitX=1;exitY=0.5;exitDx=0;exitDy=0;entryX=0;entryY=0.5;entryDx=0;entryDy=0;" edge="1" parent="1" source="MPhp0kBqt63ndakurBv6-2" target="MPhp0kBqt63ndakurBv6-3">
          <mxGeometry width="50" height="50" relative="1" as="geometry">
            <mxPoint x="300" y="160" as="sourcePoint" />
            <mxPoint x="350" y="110" as="targetPoint" />
          </mxGeometry>
        </mxCell>
        <mxCell id="MPhp0kBqt63ndakurBv6-5" value="DTO&lt;br&gt;Transferencia de Datos del Objeto&amp;nbsp;" style="shape=callout;whiteSpace=wrap;html=1;perimeter=calloutPerimeter;" vertex="1" parent="1">
          <mxGeometry x="330" y="170" width="120" height="80" as="geometry" />
        </mxCell>
        <mxCell id="MPhp0kBqt63ndakurBv6-6" value="Personaliza los atributos que desea mostrar&lt;br&gt;Solo viaja datos, sin estructura" style="rounded=1;whiteSpace=wrap;html=1;" vertex="1" parent="1">
          <mxGeometry x="170" y="230" width="210" height="60" as="geometry" />
        </mxCell>
        <mxCell id="MPhp0kBqt63ndakurBv6-7" value="" style="shape=flexArrow;endArrow=classic;html=1;rounded=0;entryX=0;entryY=0;entryDx=0;entryDy=0;exitX=0.75;exitY=1;exitDx=0;exitDy=0;" edge="1" parent="1" source="MPhp0kBqt63ndakurBv6-2" target="MPhp0kBqt63ndakurBv6-6">
          <mxGeometry width="50" height="50" relative="1" as="geometry">
            <mxPoint x="180" y="140" as="sourcePoint" />
            <mxPoint x="350" y="110" as="targetPoint" />
          </mxGeometry>
        </mxCell>
      </root>
    </mxGraphModel>
  </diagram>
</mxfile>
